HIERARCHY
ROOT Hips
{
	OFFSET 35.776901 -2.493256 98.642998
	CHANNELS 6 Xposition Yposition Zposition Xrotation Yrotation Zrotation
	JOINT spine
	{
		OFFSET 0.000000 -0.477352 8.301041
		CHANNELS 3 Xrotation Yrotation Zrotation
		JOINT spine1
		{
			OFFSET 0.000000 -0.000002 10.456497
			CHANNELS 3 Xrotation Yrotation Zrotation
			JOINT spine2
			{
				OFFSET 0.000000 -0.000002 10.019203
				CHANNELS 3 Xrotation Yrotation Zrotation
				JOINT Neck
				{
					OFFSET 0.000000 -1.226414 25.723495
					CHANNELS 3 Xrotation Yrotation Zrotation
					JOINT Head
					{
						OFFSET 0.000000 -0.000001 7.771744
						CHANNELS 3 Xrotation Yrotation Zrotation
						End Site
						{
							OFFSET 0.000000 6.203937 18.811996
						}
					}
				}
				JOINT RightShoulder
				{
					OFFSET -4.218800 0.587437 10.820007
					CHANNELS 3 Xrotation Yrotation Zrotation
					JOINT RightArm
					{
						OFFSET 0.000000 -0.000002 14.191406
						CHANNELS 3 Xrotation Yrotation Zrotation
						JOINT RightArmRoll
						{
							OFFSET 0.000000 -0.000001 7.164078
							CHANNELS 3 Xrotation Yrotation Zrotation
							JOINT RightForeArm
							{
								OFFSET 0.000000 -0.000003 20.866501
								CHANNELS 3 Xrotation Yrotation Zrotation
								JOINT RightForeArmRoll
								{
									OFFSET 0.000000 -0.000001 8.039215
									CHANNELS 3 Xrotation Yrotation Zrotation
									JOINT RightHand
									{
										OFFSET 0.000000 -0.000003 16.132996
										CHANNELS 3 Xrotation Yrotation Zrotation
										End Site
										{
											OFFSET 0.000000 0.000000 0.100006
										}
									}
								}
							}
						}
					}
				}
				JOINT LeftShoulder
				{
					OFFSET 4.218800 0.587437 10.820007
					CHANNELS 3 Xrotation Yrotation Zrotation
					JOINT LeftArm
					{
						OFFSET 0.000000 -0.000002 14.191406
						CHANNELS 3 Xrotation Yrotation Zrotation
						JOINT LeftArmRoll
						{
							OFFSET 0.000000 -0.000001 7.164078
							CHANNELS 3 Xrotation Yrotation Zrotation
							JOINT LeftForeArm
							{
								OFFSET 0.000000 -0.000003 20.866501
								CHANNELS 3 Xrotation Yrotation Zrotation
								JOINT LeftForeArmRoll
								{
									OFFSET 0.000000 -0.000001 8.039215
									CHANNELS 3 Xrotation Yrotation Zrotation
									JOINT LeftHand
									{
										OFFSET 0.000000 -0.000003 16.132996
										CHANNELS 3 Xrotation Yrotation Zrotation
										End Site
										{
											OFFSET 0.000000 0.000000 0.100006
										}
									}
								}
							}
						}
					}
				}
			}
		}
	}
	JOINT RightUpLeg
	{
		OFFSET -7.357731 1.131820 -1.349213
		CHANNELS 3 Xrotation Yrotation Zrotation
		JOINT RightUpLegRoll
		{
			OFFSET 0.000000 -0.000003 18.916801
			CHANNELS 3 Xrotation Yrotation Zrotation
			JOINT RightLeg
			{
				OFFSET 0.000000 0.000004 -23.425598
				CHANNELS 3 Xrotation Yrotation Zrotation
				JOINT RightLegRoll
				{
					OFFSET 0.000000 -0.000004 23.502304
					CHANNELS 3 Xrotation Yrotation Zrotation
					JOINT RightFoot
					{
						OFFSET 0.000000 -0.000003 19.561707
						CHANNELS 3 Xrotation Yrotation Zrotation
						JOINT RightToeBase
						{
							OFFSET 0.000000 -0.000003 16.352600
							CHANNELS 3 Xrotation Yrotation Zrotation
							End Site
							{
								OFFSET 0.006931 0.912835 7.919434
							}
						}
					}
				}
			}
		}
	}
	JOINT LeftUpLeg
	{
		OFFSET 7.357731 1.131820 -1.349213
		CHANNELS 3 Xrotation Yrotation Zrotation
		JOINT LeftUpLegRoll
		{
			OFFSET 0.000000 -0.000003 18.916901
			CHANNELS 3 Xrotation Yrotation Zrotation
			JOINT LeftLeg
			{
				OFFSET 0.000000 -0.000004 23.425499
				CHANNELS 3 Xrotation Yrotation Zrotation
				JOINT LeftLegRoll
				{
					OFFSET 0.000000 -0.000004 23.719498
					CHANNELS 3 Xrotation Yrotation Zrotation
					JOINT LeftFoot
					{
						OFFSET 0.000000 -0.000003 19.344406
						CHANNELS 3 Xrotation Yrotation Zrotation
						JOINT LeftToeBase
						{
							OFFSET 0.000000 -0.000003 16.352600
							CHANNELS 3 Xrotation Yrotation Zrotation
							End Site
							{
								OFFSET -0.031063 0.912836 7.919434
							}
						}
					}
				}
			}
		}
	}
}
MOTION
Frames: 8
Frame Time: 0.041667
38.206005 -4.785137 98.555496 -3.632313 -1.159018 2.893879 -1.051314 -0.154182 0.204632 1.900737 -0.309143 0.413071 3.545800 -0.304618 0.416738 20.607804 3.712610 -2.885913 -7.222090 -2.632278 -2.680775 -3.675702 -73.163019 -5.687978 -65.887891 -105.472655 -35.008961 -0.000001 0.000001 0.000000 0.058150 -7.411195 0.104513 -0.000003 0.000009 -3.038921 -5.000181 -7.999071 0.000141 8.398184 66.676860 -8.458970 -23.151348 101.650495 5.443189 -0.000001 0.000001 0.000001 1.728480 12.242597 0.147790 0.000001 -0.000006 3.000000 -5.000238 7.998731 -0.000165 3.202144 -178.770912 0.387969 -179.999991 0.000005 -1.045000 175.248160 -4.659997 -0.581931 -0.000004 0.000003 0.061887 68.892198 6.850609 2.266724 25.456238 -7.357008 0.000373 1.305434 178.349435 2.198622 -0.000005 -0.000004 -1.168450 -11.842658 3.106966 1.117062 -0.000003 0.000002 -0.166604 69.545553 -6.871407 -2.124271 25.459614 7.354502 -0.010513 
38.194305 -4.767186 98.549309 -3.637107 -1.159501 2.910501 -1.049262 -0.153736 0.203368 1.904847 -0.307441 0.410136 3.549909 -0.302919 0.413782 20.614395 3.682789 -2.886453 -7.232735 -2.606790 -2.683700 -3.693817 -73.158587 -5.707337 -65.681968 -105.439003 -34.793779 0.000001 0.000000 -0.000002 0.058160 -7.416915 0.107029 -0.000002 0.000009 -3.038919 -5.000183 -7.999071 0.000144 8.395400 66.660993 -8.458458 -23.082646 101.668465 5.365359 -0.000002 0.000002 0.000002 1.718634 12.232960 0.149525 0.000001 -0.000006 3.000002 -5.000238 7.998731 -0.000165 3.195770 -178.775899 0.387979 -179.999991 0.000005 -1.045000 175.219883 -4.657818 -0.584063 -0.000004 0.000003 0.061778 68.881133 6.850610 2.267108 25.454522 -7.357024 0.001421 1.283617 178.347413 2.194496 -0.000005 -0.000004 -1.168410 -11.890513 3.105149 1.118886 -0.000004 0.000002 -0.167017 69.546509 -6.871411 -2.124215 25.454061 7.354520 -0.019493 
38.195705 -4.776724 98.541595 -3.642410 -1.160303 2.927633 -1.047131 -0.153225 0.202039 1.909087 -0.305554 0.407035 3.554148 -0.301037 0.410660 20.621072 3.651931 -2.886971 -7.243125 -2.580361 -2.686674 -3.711822 -73.154659 -5.726622 -65.474508 -105.404080 -34.578150 0.000001 0.000000 -0.000001 0.058176 -7.424265 0.109535 -0.000002 0.000010 -3.038921 -5.000184 -7.999071 0.000143 8.392395 66.644533 -8.457766 -23.007185 101.688020 5.281152 -0.000001 0.000002 0.000001 1.708925 12.223825 0.151187 0.000002 -0.000006 3.000001 -5.000240 7.998732 -0.000163 3.191174 -178.779901 0.387701 -179.999991 0.000005 -1.045000 175.193259 -4.655638 -0.586057 -0.000005 0.000002 0.061615 68.871331 6.850615 2.267517 25.451896 -7.357027 0.002952 1.264210 178.346403 2.191194 -0.000005 -0.000004 -1.168350 -11.935458 3.102895 1.120525 -0.000003 0.000002 -0.167377 69.547677 -6.871426 -2.124244 25.442241 7.354535 -0.027292 
38.190605 -4.791738 98.538399 -3.648081 -1.161323 2.945142 -1.044965 -0.152669 0.200664 1.913426 -0.303539 0.403821 3.558488 -0.299025 0.407422 20.627728 3.620337 -2.887462 -7.253320 -2.553289 -2.689679 -3.729813 -73.151333 -5.745931 -65.265627 -105.368201 -34.361842 -0.000000 0.000001 -0.000002 0.058191 -7.432745 0.112039 -0.000002 0.000010 -3.038921 -5.000183 -7.999070 0.000140 8.389281 66.627881 -8.456995 -22.931527 101.706482 5.197148 -0.000001 0.000002 0.000002 1.699323 12.215087 0.152808 0.000002 -0.000006 3.000002 -5.000239 7.998731 -0.000164 3.187805 -178.783890 0.387184 -179.999991 0.000005 -1.045000 175.167824 -4.653475 -0.588952 -0.000005 0.000002 0.061414 68.862370 6.850598 2.267968 25.448762 -7.357043 0.004861 1.246469 178.345378 2.188454 -0.000005 -0.000004 -1.168270 -11.978394 3.100359 1.122043 -0.000003 0.000002 -0.167699 69.549153 -6.871417 -2.124252 25.426079 7.354559 -0.034275 
38.182804 -4.790566 98.548599 -3.653956 -1.162463 2.962860 -1.042772 -0.152086 0.199265 1.917816 -0.301449 0.400540 3.562877 -0.296941 0.404116 20.634389 3.588332 -2.887940 -7.263423 -2.525843 -2.692692 -3.747710 -73.148102 -5.765177 -65.055394 -105.331913 -34.144594 0.000001 0.000000 -0.000001 0.058211 -7.441885 0.114541 -0.000002 0.000009 -3.038923 -5.000182 -7.999071 0.000142 8.386075 66.611024 -8.456162 -22.854887 101.724862 5.112386 -0.000002 0.000004 0.000003 1.689782 12.206448 0.154398 0.000003 -0.000006 3.000000 -5.000238 7.998732 -0.000164 3.185161 -178.788876 0.386474 -179.999991 0.000005 -1.045000 175.143017 -4.651318 -0.590795 -0.000004 0.000002 0.061192 68.853928 6.850611 2.268292 25.445228 -7.357060 0.006965 1.229695 178.344381 2.186037 -0.000005 -0.000005 -1.168180 -12.020225 3.097639 1.123488 -0.000003 0.000002 -0.168000 69.550648 -6.871444 -2.124163 25.407298 7.354585 -0.040772 
38.183704 -4.790464 98.540894 -3.659877 -1.163633 2.980625 -1.040561 -0.151497 0.197858 1.922216 -0.299341 0.397242 3.567277 -0.294838 0.400793 20.640951 3.556221 -2.888394 -7.273489 -2.498299 -2.695701 -3.765646 -73.145063 -5.784453 -64.843992 -105.295740 -33.926195 0.000000 0.000001 -0.000001 0.058230 -7.451186 0.117045 -0.000000 0.000009 -3.038919 -5.000183 -7.999070 0.000142 8.382841 66.594071 -8.455301 -22.776256 101.744144 5.025606 -0.000001 0.000003 0.000000 1.680246 12.198009 0.155983 0.000001 -0.000006 3.000002 -5.000240 7.998731 -0.000165 3.182687 -178.792851 0.385786 -179.999991 0.000005 -1.045000 175.118401 -4.648154 -0.592536 -0.000004 0.000002 0.060965 68.845616 6.850629 2.268611 25.441594 -7.357071 0.009111 1.213160 178.344367 2.183724 -0.000005 -0.000004 -1.168100 -12.061755 3.094882 1.124910 -0.000003 0.000002 -0.168296 69.552233 -6.871439 -2.124163 25.387902 7.354622 -0.047158 
38.183002 -4.796169 98.538406 -3.665698 -1.164753 2.998284 -1.038375 -0.150921 0.196464 1.926596 -0.297271 0.393976 3.571656 -0.292772 0.397504 20.647621 3.524317 -2.888863 -7.283620 -2.470943 -2.698697 -3.783568 -73.141839 -5.803709 -64.631580 -105.259997 -33.706714 0.000001 0.000001 -0.000000 0.058248 -7.460155 0.119545 -0.000002 0.000009 -3.038921 -5.000183 -7.999071 0.000142 8.379645 66.577214 -8.454470 -22.698568 101.763514 4.939757 -0.000002 0.000002 0.000002 1.670696 12.189372 0.157573 0.000002 -0.000006 3.000000 -5.000238 7.998731 -0.000164 3.179858 -178.796854 0.385166 -179.999991 0.000005 -1.045000 175.093429 -4.645994 -0.595401 -0.000005 0.000002 0.060748 68.837085 6.850633 2.268940 25.438061 -7.357092 0.011149 1.196141 178.343356 2.181225 -0.000005 -0.000004 -1.168010 -12.103789 3.092206 1.126361 -0.000002 0.000002 -0.168602 69.553715 -6.871429 -2.124270 25.369715 7.354667 -0.053767 
38.195206 -4.826087 98.536804 -3.671260 -1.165724 3.015688 -1.036212 -0.150377 0.195103 1.930906 -0.295294 0.390793 3.575955 -0.290800 0.394297 20.654313 3.492929 -2.889330 -7.293869 -2.444045 -2.701656 -3.801519 -73.138294 -5.822977 -64.418676 -105.225403 -33.486164 0.000001 0.000000 -0.000002 0.058264 -7.468315 0.122050 -0.000001 0.000009 -3.038922 -5.000183 -7.999070 0.000144 8.376583 66.560658 -8.453747 -22.624573 101.782106 4.857304 -0.000003 0.000003 0.000003 1.661063 12.180433 0.159196 0.000003 -0.000006 3.000000 -5.000239 7.998732 -0.000166 3.176145 -178.800842 0.384720 -179.999991 0.000005 -1.045000 175.067639 -4.643815 -0.597318 -0.000004 0.000002 0.060558 68.827912 6.850631 2.269309 25.435032 -7.357103 0.012940 1.177925 178.342359 2.178332 -0.000004 -0.000004 -1.167940 -12.147327 3.089747 1.127900 -0.000003 0.000002 -0.168935 69.555074 -6.871417 -2.124284 25.354774 7.354706 -0.060981 
